<?xml version="1.0"?>
<svg xmlns="http://www.w3.org/2000/svg" height="512px" viewBox="0 0 511.99922 511" width="512px" class=""><g><path d="m421.976562 332.46875c-49.617187 0-89.984374 40.367188-89.984374 89.984375 0 49.621094 40.367187 89.988281 89.984374 89.988281 49.621094 0 89.988282-40.367187 89.988282-89.988281 0-49.617187-40.367188-89.984375-89.988282-89.984375zm0 139.980469c-27.5625 0-49.992187-22.429688-49.992187-49.996094 0-27.5625 22.429687-49.992187 49.992187-49.992187 27.566407 0 49.992188 22.429687 49.992188 49.992187 0 27.566406-22.425781 49.996094-49.992188 49.996094zm-279.511718-331.792969 188.800781 188.804688c-9.652344 9.417968-17.851563 20.324218-24.21875 32.339843l-181.320313-181.324219c-3.332031 12.859376-4.945312 26.160157-4.703124 39.65625.53125 30.113282 10.242187 60.453126 28.074218 87.734376l9.480469 14.5-111.929687 98.578124c-4.125 3.695313-6.488282 8.78125-6.644532 14.320313-.160156 5.558594 1.914063 10.785156 5.847656 14.714844l16.652344 16.65625c3.933594 3.929687 9.152344 6.019531 14.714844 5.847656 5.539062-.160156 10.625-2.519531 14.320312-6.648437l98.578126-111.929688 14.5 9.480469c27.800781 18.175781 58.753906 27.882812 89.503906 28.074219.308594 0 .613281.003906.917968.003906.234376 0 .46875-.011719.707032-.011719-2.441406 9.9375-3.746094 20.320313-3.746094 31.003906 0 3.011719.109375 6 .3125 8.960938-32.429688-.46875-64.808594-9.242188-94.628906-25.589844l-76.257813 86.582031c-10.933593 12.269532-26.628906 19.578125-43.0625 20.050782-.5625.015624-1.132812.023437-1.695312.023437-15.835938 0-31.222657-6.347656-42.445313-17.570313l-16.652344-16.652343c-11.621093-11.621094-18.015624-27.710938-17.5468745-44.140625.4726565-16.433594 7.7812505-32.128906 20.0507815-43.0625l.089843-.078125 86.492188-76.175781c-16.246094-29.636719-25.054688-61.800782-25.621094-93.964844-.921875-52.011719 19.539063-101.628906 57.617188-139.703125 49.488281-49.488281 119.039062-79.625 186.046875-80.613281 53.386719-.757813 101.570312 17.542968 135.644531 51.617187 34.285156 34.289063 52.617188 83.015625 51.617188 137.214844-.597657 32.324219-8.128907 66.105469-21.777344 97.695312-2.855469 6.609375-5.996094 13.121094-9.378906 19.519531-11.96875-6.101562-25-10.402343-38.742188-12.542968 18.550781-32.875 29.25-69.648438 29.910156-105.410156.796875-43.238282-13.375-81.664063-39.910156-108.195313v-.003906c-26.363281-26.359375-64.273438-40.535157-106.777344-39.90625-56.847656.835937-116.046875 26.597656-158.355468 68.902343-9.589844 9.59375-17.773438 20.085938-24.464844 31.242188zm0 0" data-original="#000000" class="active-path" data-old_color="#000000" fill="#FFFFFF"/></g> </svg>
